<svg width="516" height="630" viewBox="0 0 516 630" fill="none" xmlns="http://www.w3.org/2000/svg">
<g filter="url(#filter0_d_1039_5171)">
<rect x="127.212" y="90.9092" width="272.727" height="333.333" fill="white"/>
<path fill-rule="evenodd" clip-rule="evenodd" d="M242.053 609.123C242.968 609.653 243.688 610.062 244.197 610.349L245.043 610.821C251.797 614.529 260.174 614.5 266.935 610.833L267.803 610.349C268.312 610.062 269.032 609.653 269.947 609.123C271.777 608.062 274.393 606.515 277.682 604.49C284.256 600.442 293.538 594.472 304.625 586.64C326.76 571.003 356.295 547.801 385.895 517.495C444.808 457.177 506 366.55 506 250C506 111.929 394.071 0 256 0C117.929 0 6 111.929 6 250C6 366.55 67.1916 457.177 126.105 517.495C155.705 547.801 185.24 571.003 207.375 586.64C218.462 594.472 227.744 600.442 234.318 604.49C237.607 606.515 240.222 608.062 242.053 609.123ZM256 340.909C306.208 340.909 346.909 300.208 346.909 250C346.909 199.792 306.208 159.091 256 159.091C205.792 159.091 165.091 199.792 165.091 250C165.091 300.208 205.792 340.909 256 340.909Z" fill="#34D399"/>
</g>
<defs>
<filter id="filter0_d_1039_5171" x="0" y="0" width="516" height="629.593" filterUnits="userSpaceOnUse" color-interpolation-filters="sRGB">
<feFlood flood-opacity="0" result="BackgroundImageFix"/>
<feColorMatrix in="SourceAlpha" type="matrix" values="0 0 0 0 0 0 0 0 0 0 0 0 0 0 0 0 0 0 127 0" result="hardAlpha"/>
<feOffset dx="2" dy="8"/>
<feGaussianBlur stdDeviation="4"/>
<feComposite in2="hardAlpha" operator="out"/>
<feColorMatrix type="matrix" values="0 0 0 0 0 0 0 0 0 0 0 0 0 0 0 0 0 0 0.6 0"/>
<feBlend mode="normal" in2="BackgroundImageFix" result="effect1_dropShadow_1039_5171"/>
<feBlend mode="normal" in="SourceGraphic" in2="effect1_dropShadow_1039_5171" result="shape"/>
</filter>
</defs>
</svg>
